<svg xmlns="http://www.w3.org/2000/svg"  viewBox="0 0 100 100" width="100px" height="100px"><path d="M65.071,75.001L0.008,74.999	l0.001-3.999h65.061c2.172,0,3.939-1.765,3.939-3.939V36.938c0-2.172-1.767-3.939-3.939-3.939H34.945	c-2.173,0-3.939,1.767-3.939,3.939v30.125c0,0.704,0.185,1.365,0.509,1.937h-4.272c-0.155-0.62-0.237-1.269-0.237-1.939V36.939	c0-4.383,3.556-7.94,7.939-7.94h30.126c4.381,0,7.939,3.557,7.939,7.939v30.124C73.01,71.445,69.452,75.001,65.071,75.001z M74.198,71.001h25.81v4H71.048C72.416,73.97,73.508,72.593,74.198,71.001z M34.008,66.001V46.002c0-0.551,0.448-1,1-1h6.001	c0.551,0,1,0.449,1,1v19.999c0,0.552-0.449,1-1,1h-6.001C34.456,67.001,34.008,66.553,34.008,66.001z M45.007,66.001V46.002	c0-0.551,0.448-1,1-1h6.001c0.552,0,1,0.449,0.999,1.001l-0.001,0.771l0.161-0.14c1.344-1.023,3.021-1.633,4.841-1.633	c4.413,0,8,3.587,8,8v12.999c0,0.552-0.449,1-1,1h-6.001c-0.552,0-1-0.448-1-1l0.001-11.499c0-1.377-1.123-2.5-2.5-2.5	c-1.379,0-2.5,1.123-2.5,2.5v11.5c0,0.552-0.449,1-1,1h-6.001C45.455,67.001,45.007,66.553,45.007,66.001z M40.009,65.001V47.002	h-4.001v17.999H40.009z M51.009,65.001v-10.5c0-2.483,2.016-4.5,4.5-4.5c2.483,0,4.5,2.017,4.5,4.5l-0.001,10.499h4.001V53.001	c0-3.308-2.692-6-6-6c-2.18,0-4.092,1.167-5.145,2.915c-0.521,0.863-1.857,0.492-1.856-0.517v-2.396h-4v17.999H51.009z M34.009,40.001c0-2.207,1.791-4.001,4-4.001c2.208,0,4,1.795,4,4.001c0,2.208-1.792,4.001-4,4.001	C35.8,44.002,34.009,42.209,34.009,40.001z M40.009,40.001c0-1.104-0.897-2.001-2-2.001c-1.104,0-2,0.897-2,2.001	c0,1.105,0.896,2.001,2,2.001C39.112,42.002,40.009,41.106,40.009,40.001z"/></svg>