<svg xmlns="http://www.w3.org/2000/svg"  viewBox="0 0 100 100" width="100px" height="100px"><path d="M66.972,71.002h33.035v4H60.214	C62.668,73.999,64.941,72.645,66.972,71.002z M0.009,75.001v-4h50.014c11.582-0.008,20.985-9.413,20.985-21c0-11.589-9.408-21-21-21	s-21,9.411-21,21c0,8.392,4.931,15.64,12.052,19h-7.297c-5.359-4.585-8.755-11.399-8.755-19c0-13.799,11.197-25,25-25	c13.8,0,24.999,11.201,24.999,25c0,13.8-11.2,25-24.999,25H0.009z M46.007,68.581v-11.58h-3.999c-0.552,0-1-0.448-1-1v-6	c0-0.551,0.448-1,1-1h3.999v-2.999c0-5.523,4.48-10.001,10.001-10.001h3c0.551,0,1,0.449,1,1v6c0,0.552-0.449,1-1,1h-3	c-1.105,0-2.001,0.899-2.001,2v3h5.001c0.617,0,1.087,0.556,0.985,1.165l-1,6c-0.08,0.481-0.497,0.835-0.985,0.835h-4.001v11.579	c-0.655,0.14-1.323,0.247-2,0.317V56.001c0-0.551,0.448-1,1-1h4.153l0.667-4h-4.82c-0.552,0-1-0.448-1-1v-4c0-2.204,1.791-4,4.001-4	h2v-4h-2c-4.416,0-8.001,3.584-8.001,8.001v3.999c0,0.552-0.449,1-1,1h-3.999v4h3.999c0.551,0,0.999,0.448,0.999,1v12.897	C47.328,68.827,46.661,68.721,46.007,68.581z"/></svg>