<svg xmlns="http://www.w3.org/2000/svg"  viewBox="0 0 100 100" width="100px" height="100px"><path d="M66.966,71h33.036v4H60.209	C62.662,74,64.935,72.64,66.966,71z M0.002,75v-4h50.014c11.583-0.013,20.985-9.413,20.985-21s-9.408-21-21-21s-21,9.413-21,21	c0,8.387,4.931,15.64,12.052,19h-7.297c-5.359-4.587-8.755-11.4-8.755-19c0-13.8,11.197-25,25-25c13.8,0,25,11.2,25,25	s-11.2,25-25,25H0.002z M44.005,69l-0.003-2h-3c-2.175,0-3.477-2.16-4.26-3.64c-0.651-1.227-1.312-2.72-1.728-3.24	c-0.068-0.08-0.217-0.147-0.435-0.2C33.737,59.533,33.877,58,35.002,58c2.152,0,3.497,1.293,4.408,2.347	c0.503,0.573,0.797,0.973,1.145,1.32C40.894,62.013,41.013,62,41.002,62h3.097l0.208-0.853l0.119-0.28l-0.66-0.12	C38.827,59.6,36.01,54.707,36.01,50c0-1.773,0.472-3.427,1.265-5l0.591-1.013l-0.117-0.227C37.359,42.96,37.01,42,37.01,41	c0-1.387,0.509-2.467,1.141-3.52C38.333,37.187,38.658,37,39.01,37c2.255,0,3.86,0.693,5.208,1.413l0.871,0.48l0.657-0.24	C46.942,38.253,48.318,38,50.01,38c1.691,0,3.063,0.253,4.255,0.653l0.656,0.24l0.872-0.48C57.139,37.693,58.746,37,61.002,37	c0.351,0,0.676,0.187,0.857,0.48c0.632,1.053,1.143,2.133,1.143,3.52c0,1-0.351,1.96-0.741,2.76l-0.117,0.227L62.734,45	c0.793,1.573,1.268,3.227,1.268,5c0,4.707-2.82,9.6-7.757,10.747l-0.66,0.12l0.119,0.28c0.199,0.6,0.299,1.213,0.299,1.853v5.027	c-0.652,0.227-1.32,0.4-2,0.547V63c0-0.827-0.252-1.64-0.813-2.413c-0.473-0.667,0-1.587,0.813-1.587c4.876,0,8-4.347,8-9	c0-1.853-0.657-3.64-1.84-5.453c-0.203-0.32-0.215-0.72-0.029-1.04c0.488-0.867,0.869-1.733,0.869-2.507	c0-0.627-0.164-1.187-0.485-1.813l-0.088-0.16l-0.283,0.013c-1.9,0.187-3.155,1-4.66,1.84c-0.273,0.147-0.6,0.16-0.887,0.04	C53.386,40.387,51.97,40,50.01,40c-1.963,0-3.387,0.387-4.599,0.92c-0.287,0.12-0.613,0.107-0.887-0.04	c-1.507-0.84-2.761-1.653-4.66-1.84l-0.284-0.013l-0.088,0.16c-0.32,0.627-0.483,1.187-0.483,1.813c0,0.773,0.38,1.64,0.868,2.507	c0.185,0.32,0.173,0.72-0.029,1.04c-1.183,1.813-1.839,3.6-1.839,5.453c0,4.653,3.123,9,8,9c0.812,0,1.285,0.92,0.812,1.587	c-0.56,0.773-0.811,1.573-0.813,2.413c-0.001,0.56-0.448,1-0.999,1h-4.008c-0.931,0-1.595-0.56-2.215-1.267l-0.277-0.307	C39.429,64.16,40.201,65,41.002,65h4c0.551,0,0.999,0.453,0.999,1l0.004,3H44.005z"/></svg>